<svg xmlns="http://www.w3.org/2000/svg" viewBox="0 0 224 210">
  <g fill="none" fill-rule="nonzero">
    <path fill="#EDA4A4" d="M164.185 109.579s7.679-35.036 31.973-22.26c24.293 12.776 18.657-12.353 7.636-23.375 0 0 35.747 30.993 11.104 57.503-24.642 26.513-25.709-14.286-34.146 10.602l-16.567-22.47Z"/>
    <path fill="#966E6E" d="M177.719 112.348s4.914-9.221 11.794-2.342c6.879 6.879 38.265 5.754 24.35-30.567 0 0 20.242 22.503-3.951 46.698 0 0-11.744 11.785-21.524-1.674l-5.039 1.523-5.63-13.638Z" opacity=".2"/>
    <path fill="#EDA4A4" d="M29.663 10.385c-17.702 10.59-13.02 38.128-7.065 43.773 0 0 20.878 6.431 35.981-9.137 15.103-15.571 33.831 3.814 45.577 44.178 11.746 40.364 46.036 3.191 52.955-10.566-20.417 13.031-35.312 21.309-43.563-16.245C106.453 30.096 90.318 5.66 68.17 1.21c-16.039-3.222-28.573 2.602-38.507 9.175Z"/>
    <path fill="#966E6E" d="M40.482 6.962s-18.265 6.67-14.655 22.612c2.723 12.03 11.305-6.057 30.574-10.175 15.868-3.392 46.453 7.532 56.452 58.798 0 0 3.253 38.508 42.668 2.196 0 0-15.729 29.198-43.616 18.702C84.017 88.601 74.902 33.63 53.08 37.9c-21.822 4.27-31.309 15.655-31.309 15.655S1.319 18.245 40.482 6.962Z" opacity=".2"/>
    <path fill="#D9B896" d="M36.035 129.406c-1.17.633-1.414.914 0 0Zm109.06-39.241c-7.663-.149-23.007 12.122-33.554 12.122-18.207 0-21.716-9.777-21.716-26.451 0-12.155-20.163 20.968-38.46 40.586-4.698 3.305-8.62 6.719-10.571 8.883-.344.383-.337.652-.09.858-2.299 1.665-3.8 2.683-4.669 3.243 3.057-1.646 12.4-5.639 14.888 3.189.371 2.131.382 3.434.414 8.9-.125 1.242-.07 2.543.117 3.874.36 9.69 1.759 37.315 6.739 52.028 2.16 6.379 1.64 10.768 15.359 11.068 0 0 8.741.121 13.056-5.453 2.696-3.484 6.621-15.17 9.869-24.394a68.89 68.89 0 0 0 15.063 1.688c5.412 0 11.137-.396 16.874-1.17 3.256 7.189 7.322 19.227 10.877 22.781 7.602 7.6 16.898 6.46 16.898 6.46 16.188 0 22.922-42.944 25.1-60.924.936-4.843 1.476-10.146 1.476-13.397 0-19.234-8.32-43.607-37.67-43.891Z"/>
    <path fill="#6E6E96" d="M67.821 127.816s5.391-6.813 10.058-2.146 5.667 9.333 15.333 9.333h45.667s12.5-1.332 12.5-12.499V93.047h-6.33l-59.261 19.591-17.967 15.178Z" opacity=".15"/>
    <path fill="#F0F0FF" d="M93.288 122.67h41c5.5 0 10-4.5 10-10v-20c0-.843-.117-1.657-.314-2.44-7.963.908-22.374 12.056-32.432 12.056-15.338 0-20.245-6.939-21.41-19.094-3.964 1.33-6.844 5.081-6.844 9.478v20c0 5.5 4.5 10 10 10Z"/>
    <path fill="#6E6E96" d="M34.909 127.318c-1.139.615-2.214 1.195-2.218 2.664a2.377 2.377 0 0 0 1.234 2.09c1.274.697 2.212.092 3.396-.674a2.369 2.369 0 0 0 .755-3.198 2.374 2.374 0 0 0-3.167-.882Zm-.16.096c-.541.35-.727.451-.729.451 1.111-.602 2.415-.186 3.07.895.656 1.082.428 2.426-.621 3.135.052-.033.288-.183.691-.398a2.372 2.372 0 0 1-2.411-4.083Z"/>
    <path fill="#CCCCE8" d="M58.193 197.4c2.16 6.379 1.64 10.767 15.358 11.068 0 0 8.742.12 13.057-5.453a60.081 60.081 0 0 0 4.991-7.518H57.591c.195.651.394 1.29.602 1.903Zm77.172-1.901c1.738 2.584 2.278 4.772 3.926 6.423 7.602 7.6 16.898 6.46 16.898 6.46 5.813 0 10.407-5.28 14.009-12.883h-34.833Z"/>
    <path fill="#6E6E96" d="M90.848 94.841s4.011 13.968-26.575 35.563c-11.212 7.918-3.795 44.594 0 52.658 4.744 10.08 20.874 9.013 24.668-4.271 2.846-9.962 2.372-25.349 9.962-25.349s9.487 17.554 7.59 19.451h11.385s-10.436-24.668-2.371-28.463c8.063-3.795 17.452 9.534 23.1 19.799 8.118 14.76 14.438 5.438 14.438 5.438s41.211-39.267 13.696-72.472c0 0 23.107 16.129 13.282 61.196-6.474 45.066-19.449 49.438-19.449 49.438s-22.311 10.099-31.784-28.296c-10.899 2.025-20.899 2.025-32.311-.914 0 0-1.158 11.034-9.871 24.394 0 0-3.032 3.019-7.137 4.545-6.841 2.544-16.662 2.913-20.388-7.295-5.961-13.17-8.585-63.066-8.585-68.885 0 0-1.112-4.297-7.571-4.297 0 .003 37.858-20.27 47.921-32.24Z" opacity=".15"/>
    <path fill="#6E6E96" d="M102.045 101.17s-7.5 9-7.5 12.5 38.5 0 38.5 0 4 .5 4-17.5v-1.107l6.929-4.833v25.256s1.571 7.685-13.429 7.685H93.288s-10.986-4.526-9.243-10.5c1.743-5.974 14-12.5 14-12.5l4 .999Z" opacity=".15"/>
    <path fill="#D9B896" d="M102.704 59.847c13.428 22.294-3.233 43.699-30.729 58.575-27.496 14.877-48.462 24.547-68.846-4.703-7.439-10.676 2.712-25.5 9.967-40.186 7.251-14.685 12.329-29.696 26.077-37.136 27.498-14.876 50.104 1.157 63.531 23.45Z"/>
    <path fill="#F0F0FF" d="M36.134 132.523c7.722-2.826-29.146-40.643-34.121-35.667-2.003 6.214-2.29 11.975 1.117 16.863 10.568 15.164 21.293 19.865 33.004 18.804Z"/>
    <path fill="#6E6E96" d="M6.846 114.805s26.054 20.08 13.026 2.791C6.846 100.309 3.688 98.532 3.688 98.532s26.797 14.353 31.341 30.59c.108.39.288.772.288 1.173.002 7.701-20.074-2.266-28.471-15.49Z" opacity=".15"/>
    <path fill="#6E6E96" d="M13.269 99.047s16.342 7.688 26.054 19.023c9.712 11.334 78.333-49.124 29.44-84.083 0 0 47.156 9.197 36.023 53.722l-.474 1.898s-36.049 41.399-64.751 41.399c.001.001-19.615-27.753-26.292-31.959Z" opacity=".15"/>
    <path fill="#F7F7FF" d="M36.35 114.9S24.559 96.687 13.805 92.355c0 0 22.261-52.328 52.803-52.328 12.096 0 19.357 20.749 19.357 20.749S83.192 28.93 52.089 33.914C15.162 39.831 7.76 86.074 5.417 94.405c0 0 20.915 10.279 30.933 20.495Z" opacity=".27"/>
    <path fill="#6E6E96" d="M54.357 56.793c1.547 3.292.847 7.842-1.567 10.15-2.411 2.313-5.624 1.511-7.175-1.789-1.549-3.292-.849-7.843 1.568-10.154 2.414-2.307 5.623-1.514 7.174 1.793Z"/>
    <ellipse cx="68.17" cy="201.17" fill="#F0F0FF" rx="4.375" ry="2.125"/>
    <ellipse cx="149.295" cy="201.67" fill="#F0F0FF" rx="4" ry="1.75"/>
    <path fill="#D9B896" d="M86.005 48.739c16.767-10.599 30.121-9.129 30.121-9.129s-.07.089-.185.229c.643.093 1.147.34 1.476.78 2.542 3.421-6.681 16.718-13.199 21.966-10.807 8.698-18.091 5.48-22.364 2.834-.333-.206.057.382 0 0-5.023-2.769-7.75-9.157 4.151-16.68Z"/>
    <path fill="#6E6E96" d="M104.326 59.699s17.318-15.13-3.961-8.886c-21.279 6.245-15.758 13.393-10.982 15.225 0 0-16.086 1.125-10.297-8.98 5.79-10.104 26.928-19.042 36.61-15.217l.534.977c.001-.001-5.901 14.205-11.904 16.881Z" opacity=".15"/>
  </g>
</svg>
