<svg xmlns="http://www.w3.org/2000/svg" viewBox="0 0 242 227">
  <g fill="none" fill-rule="nonzero">
    <path fill="#D8D8E6" d="M241.039 135.494c0-39.602-34.631-57.688-79.813-57.688-45.184 0-135.032 107.081-100.077 86.566 5.924-3.478 20.133-8.002 26.807 1.222l-.118-.025s7.929 6.767 1.955 39.336c-1.37 14-.627 13.259 2.283 16.168 7.696 7.695 37.828 6.089 46.364 0 1.956-6.11 3.193-11.68 3.952-16.646 6.341 1.79 12.688 2.771 18.835 2.771 10.322 0 19.902-1.428 28.617-4.026.732 5.276 2.016 11.271 4.137 17.901 5.128 5.128 35.468 6.089 41.559 0 3.489-12.859 4.457-46.184 4.717-66.105.782-12.722.782-12.722.782-19.474Z"/>
    <path fill="#D8D8E6" d="M141.268 43.301c-27.462-15.162-72.219-2.233-88.796 27.792-9.751 17.663-10.725 35.673-4.29 50.598l-.006-.002s.011.021.018.031c.389.898.798 1.793 1.24 2.668 2.214 5.688 5.008 19.016-13.044 26.68 0 0-25.783 9.225-29.206-12.778 0 0-.228-9.81-5.02-5.021-4.791 4.791 4.106 37.879 32.857 37.879 19.171 0 35.898-9.74 46.14-19.748 27.027 9.861 62.766 3.514 77.616-23.383 16.576-30.022 9.953-69.555-17.509-84.716Z"/>
    <path fill="#6E6E96" d="M2.725 134.98s.425 11.362 8.587 19.355c10.866 10.642 33.367 15.313 66.687-20.74 0 0 22.972 1.641 35.736-10.259 13.509-12.592 12.714-48.161-15.516-54.251l32.182-9.208 30.769 61.218s-12.381 46.141-80.006 30.303c0 0-22.874 23.061-48.834 20.177-25.964-2.886-34.357-31.843-29.605-36.595Z" opacity=".15"/>
    <path fill="#6E6E96" d="M77.702 91.513a5.917 5.917 0 0 1-6.115 5.797c-3.303-.107-5.917-2.884-5.843-6.2a5.914 5.914 0 0 1 6.118-5.798c3.303.113 5.917 2.879 5.84 6.201Z"/>
    <path fill="#D8D8E6" d="M210.449 24.902c-20.496-25.62-56.313-31.029-79.998-12.08-14.602 11.682-29.012 32.37-33.12 52.522 12.501-2.967 26.545 5.24 32.661 19.755 4.562 10.822 3.53 22.349-1.785 30.363 25.371 8.179 59.406 3.785 76.465-9.863 23.686-18.946 26.272-55.077 5.777-80.697Z"/>
    <path fill="#E0A1CB" d="M192.261 36.631c-14.674-18.342-40.318-22.214-57.276-8.648-10.454 8.363-20.771 23.175-23.712 37.604 8.952 1.511 13.448 4.55 17.827 14.943 3.265 7.748 4.226 8.709 4.28 20.941 18.162 5.856 42.531 2.708 54.746-7.062 16.957-13.565 18.811-39.433 4.135-57.778Z"/>
    <path fill="#CF94BB" d="M129.61 42.897c16.478-13.181 41.394-9.418 55.647 8.403 9.104 11.382 11.65 25.744 8.018 38.072 12.006-14.274 12.006-36.465-1.014-52.74-14.674-18.342-40.318-22.214-57.276-8.648-10.454 8.363-20.771 23.175-23.712 37.604.084.014.164.033.248.047 4.57-9.058 11.293-17.303 18.089-22.738Z"/>
    <path fill="#F0F0FF" d="M16.924 104.395s6.603 35.242 44.57 35.242c0 0 14.268 1.762 14.268-12.439 0-10.568-10.483-6.855-24.115-8.811-32.538-4.664-37.364-28.972-34.723-13.992Z"/>
    <path fill="#D8D8E6" d="M110.589 207.628c-.912 5.366-5.338 9.091-9.885 8.315-4.547-.773-3.542-3.168-2.63-8.534.911-5.366 1.385-11.671 5.934-10.897 4.546.772 7.493 5.75 6.581 11.116ZM207.845 207.611c.852 3.621-.657 7.074-3.372 7.713-2.714.638-3.295-.889-4.147-4.512-.853-3.619-1.65-7.965 1.063-8.604 2.713-.636 5.605 1.782 6.456 5.403Z"/>
    <path fill="#6E6E96" d="M113.407 69.824c4.466 2.366 8.532 5.986 11.703 10.607a32.37 32.37 0 0 0-1.21-3.097c-2.03-4.452-5.854-6.649-10.493-7.51Zm97.042-44.922c-8.979-11.222-21.91-18.806-34.458-21.924 10.036 3.388 19.117 11.565 26.454 20.041 20.01 23.116 17.484 55.717-5.641 72.812-14.725 10.888-42.398 15.241-65.73 11.006-.705 3.875-.826 5.548-2.867 8.626 25.368 8.18 58.125 5.71 75.186-7.938 23.685-18.948 27.552-57.004 7.056-82.623Z" opacity=".15"/>
    <path fill="#EFEFFF" d="M203.458 22.659c-19.785-25.62-53.436-29.106-76.299-10.156-14.098 11.681-25.224 30.446-29.188 50.599 2.053-.504.436-.678 2.529-.561 6.033-16.031 17.212-31.191 28.515-40.559 22.865-18.949 57.441-13.54 77.229 12.08a64.31 64.31 0 0 1 9.891 18.289c-1.536-10.393-5.725-20.692-12.677-29.692Z" opacity=".82"/>
    <path fill="#D8D8E6" d="M214.137 128.788c2.731 3.593-.707 23.272-7.681 28.575-6.977 5.305-14.845 6.691-17.576 3.1-2.731-3.594 3.668-7.844 10.643-13.146 6.975-5.305 11.882-22.122 14.614-18.529Z"/>
    <path fill="#6E6E96" d="M240.037 135.494c.001-9.192-2.167-17.8-5.913-25.258-.214 9.341 2.678 18.276-.92 26.529a101.059 101.059 0 0 1-1.058 4.66c-7.516 21.063-30.706 37.242-59.685 41.553-8.086 2.205-16.669 3.395-25.565 3.395-22.439 0-42.897-7.551-58.356-19.954 9.308 12.645 13.69 18.457 27.397 25.722 7.411 2.725 10.133 10.737 10.133 14.207 0 15.313-7.432 19.188-13.141 19.908 10.188.049 20.938-1.927 25.505-5.186 1.958-6.116 3.19-11.682 3.946-16.65 6.344 1.792 12.688 2.775 18.841 2.775 19.505 0 36.39-5.061 49.683-13.617l-.074.064s.086-.063.235-.168c.474-.307.94-.613 1.401-.927 4.594-2.885 17.154-9.433 15.184 6.728-.542 4.455-1.003 8.281-1.324 11.504-.334 3.316-4.582 12.246-28.688 12.246-4.825 0 24.837 6.677 32.357.711 4.812-3.816 10.25 6.306 10.25-68.69 0 0-.021.048-.059.114 1.858-6.25-.149-12.844-.149-19.666ZM72.096 120.442c1.449 9.069-6.783 10.598-6.783 10.598-37.997 9.332-48.984-31.179-48.986-31.187-.09.553.144 1.967.597 4.542 0 0 6.603 35.242 44.57 35.242 0 0 14.268 1.762 14.268-12.439 0-3.766-1.336-5.714-3.666-6.756Z" opacity=".15"/>
  </g>
</svg>
