<svg xmlns="http://www.w3.org/2000/svg" viewBox="0 0 235 205">
  <g fill="none" fill-rule="evenodd" transform="translate(-6)">
    <path stroke="#6E6E96" stroke-linecap="round" stroke-linejoin="round" stroke-width="5" d="M231.469 87.104s11.35 41.134 4.35 64.134"/>
    <path fill="#F0F0FF" fill-rule="nonzero" d="M21.714 3.405s-19.961 17.696.883 39.156c12.365 12.729 33.068 8.063 32.459-2.673-.146-2.591 3.288-13.733 1.499-12.665-7.128 4.254-33.615-2.506-28.848-20.801.001.001 3.063-12.157-5.993-3.017Z"/>
    <path fill="#6E6E96" fill-rule="nonzero" d="M16.489 13.33c-.523 6.299 1.508 13.901 9.42 22.048 10.363 10.669 26.579 9.114 31.199 2.009-.095.641-.146 1.175-.127 1.539.609 10.736-20.095 15.402-32.459 2.673-10.74-11.057-10.647-21.114-8.033-28.269Z" opacity=".15"/>
    <ellipse cx="145.351" cy="78.781" fill="#FFF" fill-rule="nonzero" opacity=".36" rx="72.353" ry="49.279"/>
    <path fill="#F0F0FF" fill-rule="nonzero" d="M234.824 101.063c0-41.119-33.331-71.323-88.022-71.323-54.69 0-99.025 10.399-99.025 51.519 0 23.888 14.966 48.733 38.228 65.365a3.151 3.151 0 0 1-.095-.064s13.215 15.386 13.215 46.195v11.734h22.006s-3.639-27.071 11.868-35.629c1.682 3.103 2.803 6.873 2.803 11.424v18.338h17.604v-10.271s-1.072-13.745 2.854-22.265c3.467-3.467 6.842-3.177 10.11.092 2.956 3.639 5.252 7.591 5.252 14.104v18.338h17.605v-10.27s-.76-11.146 1.355-20.467c9.336 11.532 6.103 34.176 6.103 34.176h16.871v-9.535c0-30.883 5.813-47.419 9.142-54.362 7.89-10.01 12.126-22.475 12.126-37.099Z"/>
    <ellipse cx="146.412" cy="67.231" fill="#FFF" fill-rule="nonzero" opacity=".36" rx="45.506" ry="30.994"/>
    <path fill="#6E6E96" fill-rule="nonzero" d="M149.447 28.688c.135.459.269.964.404 1.522 4.455 18.171-19.386 31.975-19.386 31.975-5.192 1.796-13.127-1.341-14.692-2.612-22.872-18.566.689-18.62.689-18.62 16.084 4.192 23.274-6.899 27.404-12.682-13.183-.745-27.439.231-39.637 5.16-33.363 13.489 11.545 63.264 29.114 63.264 17.572 0 34.887-15.596 37.431-36.78 3.172-26.411 25.202-19.839 25.202-19.839s-26.129-9.492-46.529-11.388Z"/>
    <ellipse cx="71.842" cy="85.245" fill="#F0F0FF" fill-rule="nonzero" rx="62.564" ry="62.192"/>
    <ellipse cx="67.517" cy="75.977" fill="#FAFAFA" fill-rule="nonzero" opacity=".57" rx="49.253" ry="48.958"/>
    <path fill="#6E6E96" fill-rule="nonzero" d="M57.449 58.997c.467 4.763-1.783 7.084-4.961 7.585-3.177.501-6.076-1.01-6.543-5.771-.466-4.763 1.732-9.032 4.908-9.53 3.177-.501 6.131 2.955 6.596 7.716ZM88.262 60.773c-.199 4.996-2.828 5.497-6.294 5.046-3.465-.454-6.456-1.685-6.258-6.681.2-4.995 3.171-8.681 6.635-8.229 3.465.449 6.115 4.867 5.917 9.864Z"/>
    <ellipse cx="68.425" cy="108.895" fill="#FFABAB" fill-rule="nonzero" rx="62.252" ry="47.14" transform="rotate(-172.241 68.425 108.895)"/>
    <path fill="#F0A1A1" fill-rule="nonzero" d="M96.189 68.155c9.927 5.313 12.378 20.137 12.378 26.386 0 22.854-32.653 41.702-64.277 41.702-13.481 0-25.865-5.921-35.648-18.231 6.592 18.638 27.258 34.028 53.43 37.595 34.072 4.643 64.54-12.51 68.056-38.311 2.72-19.988-11.54-39.293-33.939-49.141Z"/>
    <path fill="#6E6E96" fill-rule="nonzero" d="M233.469 87.104c1.683 9.774-5.265 5.941-8.505 1.071-1.534-2.306-.546-6.535-.546-6.535s3.167-11.473-12.223-16.976c-9.021-3.227-10.967-12.495-9.737-16.558 1.139-3.765 5.449-.805 5.449-.805s21.237 14.704 25.562 39.803Z"/>
    <ellipse cx="46.362" cy="87.839" fill="#6E6E96" fill-rule="nonzero" rx="7.997" ry="6.116" transform="rotate(174.094 46.362 87.84)"/>
    <ellipse cx="78.039" cy="89.873" fill="#6E6E96" fill-rule="nonzero" rx="7.997" ry="5.998" transform="rotate(-173.056 78.038 89.873)"/>
    <path fill="#6E6E96" fill-rule="nonzero" d="M165.401 120.918c-2.782-7.768 6.469-13.496 18.824-17.924 12.357-4.429 23.142-5.875 25.924 1.893 2.784 7.768-3.26 22.446-15.616 26.874-12.359 4.429-26.348-3.074-29.132-10.843Z"/>
    <path fill="#F0F0FF" fill-rule="nonzero" d="M144.236 13.452s20.683 16.849.75 39.158c-11.822 13.233-28.5 8.46-32.543-1.316-1.825-3.017-3.856-13.584-2.023-12.592 7.3 3.952 33.48-3.907 27.955-21.984-.003.001-3.568-12.02 5.861-3.266Z"/>
    <path fill="#6E6E96" fill-rule="nonzero" d="M150.832 21.146c.786 6.273.072 13.953-7.491 22.42-9.91 11.095-26.178 10.215-31.09 3.31.121.636.194 1.167.19 1.531-.16 10.752 20.721 14.552 32.543 1.316 10.271-11.494 8.759-21.538 5.848-28.577Z" opacity=".15"/>
    <path fill="#B8B8D4" fill-rule="nonzero" d="M99.123 193.905h21.896v9.585H99.123zM135.8 188.71h17.604v9.911H135.8zM171.618 188.905h17.605v9.718h-17.605zM197.106 191.847h16.448v10.214h-16.448z"/>
    <path fill="#6E6E96" fill-rule="nonzero" d="M111.986 203.49s-3.5-43.918 15-43.918c0 0 8.814-1 8.814 23 0 0 1.186-11-5.814-11s-8.965 24.337-8.965 31.918h-9.035ZM144.602 198.621s-3.763-34.899 15.568-34.899c0 0-6.768.949-6.768 34.899h-8.8ZM180.486 198.621V171.57s.05-13.731 10.096-3.687l-1.355 30.736-8.741.002ZM205.486 202.061s-4.5-44.989 3.5-57.489 27.48-37.235 21.49-68.117c0 0 11.026 25.598 1.623 43.652-9.403 18.056-18.545 20.965-18.545 71.74v10.214h-8.068Z" opacity=".2"/>
    <path fill="#6E6E96" fill-rule="nonzero" d="M74.794 62.174C40.724 57.53 10.257 74.682 6.741 100.48c-3.516 25.8 21.253 50.479 55.321 55.119 34.068 4.644 64.537-12.509 68.054-38.309 3.515-25.798-21.253-50.475-55.322-55.116Zm48.121 47.467c-3.115 20.945-30.113 34.869-60.3 31.102-30.188-3.77-52.135-23.804-49.021-44.748 3.115-20.944 30.112-34.868 60.3-31.1 30.189 3.768 52.136 23.802 49.021 44.746Z" opacity=".15"/>
  </g>
</svg>
