<svg xmlns="http://www.w3.org/2000/svg" viewBox="0 0 239 219">
  <g fill="none" fill-rule="nonzero">
    <path fill="#DFA000" d="m165.225 216.077-.002.015c.101-.488 2.647-11.931 18.451-12.125a2.48 2.48 0 0 0 2.447-2.509 2.48 2.48 0 0 0-2.51-2.446c-19.941.246-23.221 15.962-23.252 16.121a2.476 2.476 0 0 0 1.961 2.903 2.477 2.477 0 0 0 2.905-1.959Z"/>
    <path fill="#DFA000" d="m172.443 202.877-5.698-9.402a2.476 2.476 0 1 0-4.236 2.568l5.699 9.401a2.475 2.475 0 0 0 3.401.834 2.474 2.474 0 0 0 .834-3.401Z"/>
    <path fill="#8383A3" d="M197.912 46.939c12.516-9.249 12.088-25.19-19.314-16.937-51.679 13.582-46.682 12.493-49.77 31.418-2.032 12.467 13.072 31.514 57.91 18.005 21.298.562-29.028-2.789 11.174-32.486Z"/>
    <path fill="#000" d="M46.124 57.471c2.473 7.798 14.3 7.552 34.207-1.325 20.087-8.95 37.289-20.485 34.815-28.286-2.476-7.798-19.744-3.646-40.271 3.915-20.529 7.557-31.225 17.894-28.751 25.696Z"/>
    <path fill="#FFF" d="M46.124 57.471c2.473 7.798 14.3 7.552 34.207-1.325 20.087-8.95 37.289-20.485 34.815-28.286-2.476-7.798-19.744-3.646-40.271 3.915-20.529 7.557-31.225 17.894-28.751 25.696Z" opacity=".43"/>
    <path fill="#8383A3" d="M152.238 37.169c-.842.222-1.665.438-2.477.65-2.074-7.376-5.21-14.097-10.625-18.474-9.066-7.326-29.202-9.922-45.797-11.917-9.306-2.755-26.279-4.546-45.687-5.854C18.161-.411.098 2.716-.022 8.621c-.089 4.456 8.592 7.721 25.437 9.449-4.746 2.432-7.332 5.377-6.655 8.305.749 3.237 5.343 5.789 12.023 7.22-2 2.286-2.808 4.625-2.096 6.805 1.359 4.153 7.904 6.771 16.821 7.396.487.3.988.602 1.5.901-1.698 2.789-2.165 5.539-1.115 7.994 2.203 5.15 10.53 7.729 21.183 7.342 47.876 14.34 7.863 75.496 41.498 51.92 12.09-8.475 37.391-23.07 50.207-29.409.541.019 1.076.036 1.599.05 7.849.207 5.968-.12 2.478-2.098 8.51-4.36 11.772-6.769 2.899-5.563-5.01.68-7.698-2.775-9.483-8.397 1.687-4.292 6.138-9.679 15.277-16.431 12.517-9.247 12.09-25.19-19.313-16.936Z"/>
    <path fill="#8D8DB0" d="M153.7 60.473c0-9.495 18.256-15.17 17.952-17.776-.305-7.511-20.303 1.164-21.006-1.513-2.573-9.797-7.006-15.986-17.92-23.631-7.85-5.498-25.275-7.445-39.639-8.943-8.055-2.067-22.746-3.411-39.543-4.392-25.528-1.49-41.163.857-41.266 5.287-.078 3.345 7.437 5.793 22.016 7.092-4.109 1.825-6.346 4.035-5.761 6.231.648 2.429 4.625 4.344 10.407 5.419-1.73 1.715-2.431 3.47-1.814 5.104 1.176 3.116 6.841 5.08 14.561 5.549.421.228.854.452 1.298.678-1.471 2.093-1.874 4.155-.965 5.999 1.906 3.863 9.114 5.8 18.335 5.508 56.703 0 11.475 60.907 40.588 43.214C130.684 82.304 153.7 76.874 153.7 60.473Z"/>
    <path fill="#000" d="M202.188 83.263c-3.069-.854-8.404 1.091-10.83 4.066-1.115 1.374-.209 2.883-.689 4.582-.563 2.01-1.169 4.175-.719 6.195.453 2.022 1.961 3.899 2.059 5.538.133 2.22-.945 4.956.096 7.507.629 1.541 2.888 2.438 3.648 4.084.416.896-.828 2.723-.22 3.362 2.083 2.192 4.979 3.012 6.969 2.937.354-.442.705-.886 1.063-1.339 7.461-9.466 24.321 3.562 29.192.329 1.182-17.951-13.693-32.741-30.569-37.261Z"/>
    <path fill="#000" d="M220.275 88.71c-6.801-5.269-15.592-8.956-25.219-10.673-3.19.672-6.646 2.489-8.574 4.855-1.344 1.652-.252 3.471-.832 5.521-.68 2.419-1.407 5.029-.865 7.466.547 2.435 2.361 4.697 2.48 6.672.161 2.674-1.14 5.972.115 9.044.758 1.858 3.479 2.938 4.396 4.922.5 1.077-1 3.278-.268 4.049 2.512 2.645 6.002 3.632 8.398 3.539.426-.533.852-1.064 1.281-1.611a10.977 10.977 0 0 1 2.25-2.142c.041-.054.082-.104.125-.157 8.6-10.908 29.692 8.075 30.519-2.41.558-7.097-1.173-13.506-4.595-19.032-2.534-3.727-5.663-7.105-9.211-10.043Z" opacity=".31"/>
    <path fill="#000" d="M186.291 77.038c-2.34 1.069-4.497 2.569-5.934 4.332-1.582 1.945-.295 4.086-.979 6.498-.802 2.849-1.656 5.921-1.02 8.786.643 2.867 2.779 5.529 2.92 7.854.188 3.146-1.344 7.027.138 10.646.89 2.188 4.093 3.457 5.174 5.796.589 1.267-1.177 3.855-.313 4.765 2.729 2.872 6.428 4.07 9.199 4.154 2.613-2.903 5.271-6.097 8.09-9.674 8.6-10.91 29.694 8.074 30.52-2.41 1.84-23.436-21.27-39.377-47.795-40.747Z" opacity=".31"/>
    <path fill="#8D8DB0" d="M82.326 173.823c.747 9.85 25.283 10.654 42.759 5.666.031.039.054.082.091.115 13.67 11.646 13.934 10.385 21.82 14.562 7.135 3.284 13.754 3.938 19.977.593 10.129-5.456-8.646-34.951 6.846-46.204a18.5 18.5 0 0 0 1.699-1.382c10.588-6.921 18.371-14.698 28.049-26.978 8.599-10.908 29.693 8.075 30.519-2.41 2.552-32.459-42.76-54.387-78.722-35.444l-112.219 64.9C15.577 162.3 1.575 171.35 5.385 177.684c0 0 7.79 11.373 35.379-2.752-.001.001-3.582 17.091 41.562-1.109l39.157-18.365"/>
    <path fill="#F7C663" d="M233.289 113.852s9.159 12.941 2.393 18.856c-1.072.937-1.418 1.618-3.435 2.09 0 0 1.414-.975 2.188-3.338.946-2.896.146-6.865-8.072-10.221 0 0-1.264-.446-.201-3.308 1.121-3.011 5.713-6.275 7.127-4.079Z"/>
    <path fill="#6E6E96" d="m208.609 96.014 5.675 3.15a2.477 2.477 0 0 0 2.405-4.331l-5.676-3.15a2.476 2.476 0 1 0-2.404 4.331Z"/>
    <path fill="#6E6E96" d="M96.745 141.356c-7.433-2.478-53.513 21.801-69.864 28.738-16.351 6.937-10.178-4.352-10.178-4.352s-14.155 4.413-11.319 11.941c2.836 7.528 34.465-.45 34.465-.45s47.229-21.958 56.191-27.307c8.962-5.349 8.137-6.093.705-8.57Zm99.896-60.54c-3.354 3.368-9.26 16.003-9.26 30.893 0 9.547-6.3 12.724-13.347 17.271-3.943 2.544-30.449 11.422-33.886 16.18-1.633 2.259 25.197-6.803 18.808 1.389-3.688 12.459 1.541 26.802 1.541 26.802.371 5.564 3.886 10.371-1.321 12.106-10.404 3.469-31.711-14.369-31.711-14.369s-8.919 1.485-17.838 1.485c-8.918 0 6.589-1.407 14.1-8.918 6.521-6.521 5.783-9.054 3.658-9.992-8.504-8.506-28.658 5.037-48.973 14.451-20.315 9.414-24.452 3.106-24.452 3.106l-12.135 5.842c7.568 9.883 42.971-3.424 42.971-3.424l14.022-6.577-15.566 9.062c4.84 12.965 41.833 3.369 41.833 3.369s.681 2.383 15.239 11.353c14.558 8.97 25.436 4.514 29.258.691 3.018-3.018-.27-22.948-1.789-31.222 1.895-9.852 9.01-16.218 15.828-19.403 9.461-4.421 20.063-23.203 20.063-23.203-12.743-11.828-7.043-36.892-7.043-36.892Z" opacity=".41"/>
    <path fill="#6E6E96" d="M204.637 81.025s-18.373 10.452 5.079 25.646c15.87 10.282 24.03-5.879 6.606-21.141 0 0 15.042 11.091 15.042 25.156l-5.794 8.537s-12.881-5.616-21.141-.991c.003.001-22.049-30.152.208-37.207Z" opacity=".15"/>
    <path fill="#6E6E96" d="M181.9 31.736s14.933 1.273 5.354 14.486c-9.579 13.213-28.306 23.735-13.327 27.393l-13.772 3.79s-6.465-4.718-1.573-11.013c4.892-6.296 28.192-21.611 19.425-27.767-8.767-6.156-1.561-1.563-1.561-1.563l-9.611-2.188 15.065-3.138Z" opacity=".26"/>
  </g>
</svg>
