<svg xmlns="http://www.w3.org/2000/svg" viewBox="0 0 206 254">
  <g fill="none" fill-rule="nonzero">
    <ellipse cx="112.5" cy="236.309" fill="#6E6E96" opacity=".1" rx="74" ry="17.668"/>
    <path fill="#D4A5A5" d="M195.879 182.01c-8.177 15.479-19.162 28.377-43.236 22.823l6.803-17.385s7.097 4.337 20.248-13.964c0 0 9.768-23.04 19.205-7.765-.001.002 3.052 5.125-3.02 16.291Z"/>
    <path fill="#C29797" d="M160.805 195.909s7.594 5.612 17.829-4.623c10.235-10.234 18.916-23.645 16.001-27.217 0 0 12.727 11.037-10.718 34.479 0 0-21.709 11.189-29.042 6.563-7.332-4.628-.688.688-.688.688l6.618-9.89Z"/>
    <path fill="#D4A5A5" d="M149.053 166.791c-15.367-22.184-20.219-27.142-27.99-39.068-5.633-8.649-6.971-10.571-1.283-13.385 13.837-6.848-22.301-12.396-22.301-12.396-11.591-11.588-52.78 22.58-39.212 21.748 9.577-.586 14.954 7.474 12.624 9.802-.368.364-.63.84-.823 1.391-1.369 1.095-2.764 2.521-4.181 4.339 0 0-11.905 18.771 0 39.831 11.902 21.063 9.613 55.861 9.613 55.861l15.568 2.289s10.333-16.651 2.138-39.24c11.314 13.594 33.501 47.414 42.273 48.669 13.332 1.903 32.153-7.315 32.153-35.707 0-21.302-6.398-26.562-18.579-44.134Z"/>
    <path fill="#BA9191" d="M142.188 156.783s18.078 27.526 15.77 51.262c-2.313 23.736-9.491 18.708-9.491 18.708s10.449 9.327 6.384 14.76c0 0 23.198-15.979 11.598-43.55-11.601-27.569-24.261-41.18-24.261-41.18Z"/>
    <path fill="#C29797" d="M65.886 179.053s-7.181-34.791 11.394-44.877c18.578-10.084 39.9-15.195 66.523 25.24-7.688-16.542-34.704-41.314-24.303-48.351-19 5-37 10-55.72 13.292 0 0 8.318 6.951 2.103 14.865-6.216 7.91-6.926 25.949.003 39.831Z"/>
    <path fill="#C29797" d="M94.523 200.264s5.816 20.085-1.022 31.624l-9.852-7.388s11.146-6.897 2.124-30.786c0 0-1.491-4.754.628-6.542.978-.824 2.725-2.84 5.74.177l7.696 7.695c3.715 3.713-11.816-29.229-4.051-41.067 0 0 15.463 47.703 12.81 64.154"/>
    <path fill="#BA9191" d="M142.445 223.185s3.754-37.474-5.42-56.098c0 0 8.797 34.047-11.676 61.918.003.001-5.849 34.171 17.096-5.82Z"/>
    <path fill="#D4A5A5" d="M98.247 145.096c13.725-13.728 40.897 8.54 40.897 40.364 0 29.767-10.992 39.835-10.992 39.835 0 23.811-15.566 22.438-15.566 22.438l-5.493-16.482C113 192.01 99.5 172.954 99.5 172.954s-12.167-16.945-1.253-27.858Z"/>
    <path fill="#C29797" d="M111.092 205.421s-.025 8.822 8.823 8.822 23.203-55.135-9.979-67.815c0 0 30.748-.828 29.207 39.034.732 27.839-6.865 39.336-10.522 42.719-1.456 1.347-.675 5.97-.675 5.97s-8.86-11.234-18.791-8.189l1.937-20.541Z"/>
    <path fill="#D4A5A5" d="M92.945 231.332c2.011 5.259-2.571 11.192-10.236 13.26-7.666 2.061-15.565 1.788-17.577-3.473-2.009-5.26 2.632-13.521 10.293-15.582 7.667-2.062 15.507.535 17.52 5.795ZM127.924 232.615c2.033 6.344.654 11.388-7.679 14.062-8.331 2.667-20.462 1.956-22.492-4.389-2.037-6.342 3.071-13.654 11.401-16.327 8.336-2.672 16.741.304 18.77 6.654Z"/>
    <path fill="#C29797" d="M99.439 232.94s-3.498 11.969 11.631 7.623c11.326-1.768 12.493-13.379 12.493-13.379s13.995 12.121-3.318 19.49c-17.311 7.372-29.279-4.506-20.806-13.734ZM68.234 230.029s-2.455 9.864 7.808 8.448c10.261-1.415 10.261-9.967 10.261-9.967s15.485.868 2.938 13.415c-13.17 9.197-35.516 2.608-21.007-11.896Z"/>
    <ellipse cx="139.027" cy="237.644" fill="#D4A5A5" rx="12.622" ry="10.839" transform="rotate(152.277 139.027 237.644)"/>
    <path fill="#D4A5A5" d="M77.827 214.727v17.854s11.454 5.26 11.454-21.233l-11.454 3.379ZM111.07 205.039l-3.313 28.206 14.189-2.268s8.963-18.5 8.213-39.543-19.089 13.605-19.089 13.605Z"/>
    <path fill="#BA9191" d="M130.911 233.457s-2.409 9.528 6.567 6.565c8.979-2.962 9.681-12.017 6.373-12.24-3.313-.228 14.232-2.35 8.291 11.377-5.941 13.727-33.329 13.318-21.231-5.702Z"/>
    <path fill="#D4A5A5" d="M130.911 233.457s11.142-12.754 12.253-23.866l11.338 13.774s-15.522 26.201-23.591 10.092Z"/>
    <path fill="#BA9191" d="M153.79 224.615s-.623 5.098-10.83 12.636l-.423 10.354s12.63-3.187 18.234-12.134l-6.981-10.856Z"/>
    <path fill="#C29797" d="m88.436 222.087-2.138 6.559s-.599 5.181-3.81 7.298c0 0 7.288 1.285 8.086-.937.798-2.221 2.75-13.606 2.75-13.606l-4.888.686Z"/>
    <circle cx="10.5" cy="188.851" r="10.5" fill="#00A33D" opacity=".44"/>
    <circle cx="176.5" cy="124.851" r="5.5" fill="#00A0C6" opacity=".44"/>
    <circle cx="197" cy="61.351" r="9" fill="#FFBF00" opacity=".33"/>
    <path fill="#D4A5A5" d="M79.697 66.548C65.009 88.406 47.007 93.823 34.801 85.62c-12.206-8.202-13.995-26.916.693-48.774 14.688-21.86 45.83-39.337 54.568-33.465 8.737 5.871 4.324 41.308-10.365 63.167Z"/>
    <path fill="#BA9191" d="M62.011 16.818S30.5 45.386 37.616 85.78l30.129-12.9-5.734-56.062Z"/>
    <path fill="#D4A5A5" d="M158.917 61.408c-3.813 36.157-14.073 49.751-55.308 56.128-32.021 4.95-60.466 14.222-68.883-3.438-13.999-30.274 17.09-21.926 10.576-42.063C40.326 22.795 72.295.79 106.111 1.518c33.819.728 56.436 25.465 52.806 59.89Z"/>
    <path fill="#BA9191" d="m110.357 55.049 15.312 57.723s-59.217 16.468-79.671 11.092c0 0-18.652-2.508-14.262-27.518l24.948-2.986s-4.273 6.203-5.515 11.589c-.934 4.056 10.511-5.899 15.33.479 1.637 2.167-.021 6.616-.021 6.616s28.552-2.394 31.4-12.723c6.526-23.669 3.925-35.718 12.479-44.272"/>
    <path fill="#DBB1B1" d="M41.976 85.12c-1.94 3.838-5.773 1.368-10.24 11.226 0 0 .053 8.948 7.548 9.993 7.496 1.046 22.737-11.154 19.847-29.611-6.143-39.225 36.526-92.606 82.316-62.488 0 0-12.332-9.871-22.533-11.466-16.316-5.925-45.302-1.45-59.511 17.113-23.569 29.538-9.018 48.601-17.427 65.233Z"/>
    <path fill="#BA9191" d="M162.282 77.137c-2.763 26.189-16.144 39.396-30.771 37.853-14.623-1.542-24.955-17.247-22.193-43.438 2.764-26.19 22.119-56.201 32.586-55.098 10.472 1.106 23.141 34.494 20.378 60.683Z"/>
    <path fill="#D4A5A5" d="M155.16 63.551c-2.483 22.744-15.009 34.16-28.765 32.759-13.752-1.399-23.533-15.088-21.051-37.832 2.483-22.744 20.549-48.737 30.396-47.734 9.851 1.003 21.904 30.064 19.42 52.807Z"/>
    <ellipse cx="81.282" cy="52.333" fill="#6E6E96" rx="5.949" ry="8.018"/>
    <path fill="#FFF" d="M92.786 72.349c0 3.232-4.521 2.635-10.099 2.635s-10.099.6-10.099-2.635 4.521-5.854 10.099-5.854c5.578-.001 10.099 2.62 10.099 5.854Z" opacity=".21"/>
  </g>
</svg>
