<svg xmlns="http://www.w3.org/2000/svg" viewBox="0 0 244 210">
  <g fill="none" fill-rule="nonzero">
    <path fill="#E8AC89" d="M59.729 30.328C61.225 39.687 49.38 56.4 34.542 51.641c-16.644-5.335-32.044-2.76-33.541-12.12-1.496-9.36 12.716-19.364 28.123-21.774 15.408-2.412 29.109 3.221 30.605 12.581Z"/>
    <path fill="#F7CDAF" d="M54.644 42.392c-.409-2.945 2.791-4.585-1.359-7.198-28.723-18.093-46.845 2.64-46.845 2.64 2.899 9.463 15.958 7.021 30 13.543 7.412 3.444 13.996-1.653 18.204-8.985Z"/>
    <path fill="#E8AC89" d="M104.095 174.123c.209 13.646-7.715 24.831-17.698 24.98-9.983.149-18.246-10.794-18.455-24.439-.208-13.646 7.804-14.293 17.787-14.443 9.983-.148 18.156.255 18.366 13.902ZM148.984 174.58c.461 13.641 8.925 24.43 18.904 24.101 9.978-.331 17.694-11.659 17.233-25.299-.463-13.64-8.73-14.843-18.707-14.513-9.98.332-17.89 2.071-17.43 15.711Z"/>
    <path fill="#E4E4F2" d="M243.138 99.83c0-10.529-5.597-19.793-14.074-25.192a35.91 35.91 0 0 0 2.868-14.072c0-20.529-17.266-37.175-38.566-37.175-3.029 0-5.973.348-8.801.984C178.566 10.567 164.419.869 147.917.869c-13.258 0-24.988 6.265-32.205 15.887-5.505-5.359-13.141-8.681-21.583-8.681-16.774 0-30.374 13.106-30.374 29.276 0 .326.014.647.025.971-19.595 15.485-31.89 37.771-31.89 62.542 0 31.519 9.537 52.053 25.196 64.999 6.586 13.885 21.196 23.547 38.175 23.547 6.861 0 13.33-1.586 19.046-4.384 2.514.18 5.059.309 7.632.395 6.453 4.06 14.157 6.426 22.438 6.426 12.879 0 24.371-5.708 31.91-14.643a95.915 95.915 0 0 0 10.813-5.127 31.238 31.238 0 0 0 12.636 2.654c16.775 0 30.374-13.107 30.374-29.274 0-6.685-2.327-12.843-6.239-17.77 11.315-4.546 19.267-15.305 19.267-27.857Z"/>
    <path fill="#6E6E96" d="M243.138 99.83c0-10.529-5.597-19.793-14.074-25.192a35.91 35.91 0 0 0 2.868-14.072c0-4.917-1-9.606-2.801-13.903a36.055 36.055 0 0 1-1.982 6.188c8.479 5.399-3.184 16.594 2.451 25.523 13.54 21.457-1.512 34.515-12.823 39.06-3.603 3.567-6.517 3.515 1.136 17.77 7.666 14.277 1.459 19.854-15.316 19.854-3.208 0-12.021-1.544-15.87-3.244-9.66-1.661-15.588 8.637-19.349 10.145-7.539 8.933-12.032 8.104-24.912 8.104-8.28 0-15.983-2.367-22.438-6.427-1.33-1.314-5.118-2.882-7.633-.395-5.716 2.797-12.186 4.384-19.046 4.384-16.979 0-31.588-9.66-38.175-23.545-11.541-9.542-19.75-23.215-23.272-42.356.172 31.029 9.671 51.317 25.187 64.146 6.587 13.884 21.196 23.546 38.175 23.546 6.86 0 13.33-1.586 19.046-4.384 2.515.18 5.059.309 7.633.395 6.454 4.06 14.157 6.426 22.438 6.426 12.88 0 24.371-5.708 31.91-14.643a95.66 95.66 0 0 0 10.813-5.127 31.246 31.246 0 0 0 12.637 2.654c16.775 0 30.375-13.107 30.375-29.274 0-6.685-2.328-12.842-6.24-17.77 11.31-4.552 19.262-15.311 19.262-27.863Z" opacity=".15"/>
    <path fill="#FFF" d="M229.064 74.637c.981-.361 2.466 2.957 3.394 2.508a31.623 31.623 0 0 0-3.394-2.508 35.874 35.874 0 0 0 2.868-14.072c0-20.529-17.266-37.175-38.564-37.175-3.029 0-5.974.348-8.803.984C178.566 10.566 164.419.868 147.917.868c-13.258 0-24.99 6.265-32.205 15.887-5.505-5.359-13.14-8.683-21.582-8.683-16.774 0-30.374 13.107-30.374 29.277 0 .326.016.647.025.971-6.313 4.988-11.862 10.686-16.493 16.942.018 27.197 9.07 44.923 23.926 56.101 6.254 12 20.127 20.353 36.251 20.353 6.515 0 12.659-1.371 18.086-3.788 2.388.152 9.039-48.643 11.482-48.57 1.422.814 33.897-27.319 26.627 5.821-3.83 17.455-23.197-2.972-23.197 19.868 0 14.16 3.428 27.674 13.645 28.773 29.977 3.231 30.297-19.188 40.57-17.087 3.57-1.301-3.27 1.649 0 0 3.654 1.47 7.717 2.293 12 2.293 15.932 0 28.845-11.325 28.845-25.301.003-5.772-2.745-14.827-6.459-19.088Z" opacity=".68"/>
    <path fill="#E8AC89" d="M157.971 83.525c-6.693 6.774-17.387-2.802-32.32-7.262-28.334-8.458-16.897-27.083-10.204-33.861 6.693-6.778 23.291-1.472 34.445 9.315 11.155 10.788 14.775 25.03 8.079 31.808Z"/>
    <path fill="#F7CDAF" d="M123.868 73.218c15.555 5.794 26.746 18.137 33.832 9.896-3.904-23.94-26.929-30.692-26.929-30.692s-7.819 5.657-9.385 19.801c.795.34 1.618.674 2.482.995Z"/>
    <path fill="#E8AC89" d="M166.829 184.973c.41 12.112 7.926 21.692 16.787 21.4 8.858-.295 15.709-10.354 15.301-22.464-.41-12.111-7.752-13.18-16.611-12.888-8.861.299-15.886 1.841-15.477 13.952ZM91.829 188.337c.411 12.111 7.926 21.691 16.787 21.399 8.859-.295 15.708-10.353 15.302-22.462-.41-12.111-7.751-13.181-16.61-12.889-8.861.298-15.888 1.842-15.479 13.952ZM105.729 29.323c30.34 13.573 33.859 51.789 24.471 91.266-11.524 48.435-53.945 52.9-85.407 42.111-54.431-18.664-38.143-51.605-24.469-91.26 18.254-52.939 55.064-55.688 85.405-42.117Z"/>
    <path fill="#F7CDAF" d="M97.292 28.285c21.376 9.167 26.033 33.628 21.545 61.02-.729 4.455-23.263 1.216-24.444 5.773-1.127 4.347 19.016 3.864 17.347 19.575-13.68 28.961-44.106 31.608-67.125 24.162-35.573-11.504-33.932-31.166-25.735-55.25 1.574-4.623 13.827-6.755 15.667-11.678.615-1.646-9.206-5.959-8.593-7.635 16.002-43.773 46.485-46.624 71.338-35.967Z" opacity=".64"/>
    <ellipse cx="55.224" cy="118.221" fill="#6E6E96" rx="5.505" ry="5.447"/>
    <ellipse cx="51.65" cy="67.584" fill="#6E6E96" rx="6.701" ry="9.473"/>
    <ellipse cx="82.285" cy="68.531" fill="#6E6E96" rx="6.701" ry="9.473"/>
    <path fill="#6E6E96" d="M105.629 207.295s9.879-1.005 7.654-19.357c-1.276-10.514-8.534-11.305-8.534-11.305s20.5-5.709 16.641 16.469c-3.857 22.175-10.945 14.193-15.761 14.193ZM179.436 171.956s10.201 1.263 10.201 13.88-6.096 18.434-6.096 18.434 15.021-1.188 15.021-18.014c.001-16.823-9.368-14.3-19.126-14.3Z" opacity=".15"/>
    <path fill="#FFF" d="M104.054 111.043c-.214 2.753-3.958 4.708-8.363 4.366-4.405-.343-7.803-4.852-7.589-7.604.214-2.752 3.958-2.708 8.363-2.366 4.405.342 7.802 2.85 7.589 5.604Z" opacity=".3"/>
    <ellipse cx="30.077" cy="91.92" fill="#FFF" opacity=".3" rx="5" ry="8" transform="rotate(-85.561 30.077 91.92)"/>
  </g>
</svg>
