<svg xmlns="http://www.w3.org/2000/svg" viewBox="0 0 231 235">
  <g fill="none" fill-rule="nonzero">
    <g fill="#FFBB3F">
      <path d="M96.121 190.807s-6.859 6.615-8.705 24.38"/>
      <path d="M92.65 187.208c-.837.807-8.23 8.432-10.207 27.462a5 5 0 1 0 9.947 1.033c1.594-15.351 7.205-21.3 7.261-21.355l-.059.058a4.996 4.996 0 0 0 .128-7.067 4.997 4.997 0 0 0-7.07-.131Z"/>
      <path d="M74.988 224.681c-.028.032-.012.015-.041.046.926-.99 9.492-9.354 24.982 1.621a5 5 0 1 0 5.783-8.16c-18.608-13.188-33.124-5.862-38.2-.147a5 5 0 1 0 7.476 6.64Z"/>
    </g>
    <path fill="#6CB7E6" d="M175.736 188.18c-41.719 25.535-99.042 18.147-122.204-10.86-30.466-38.155-4.202-73.217 19.106-95.757 23.309-22.538 36.897 4.786 65.366 34.229 28.473 29.44 65.387 55.46 37.732 72.388Z"/>
    <path fill="#9EDBFF" d="M159.508 167.594c-7.939 8.003-29.835 15.974-48.889 14.017-12.618-1.297-26.371-15.649-19.785-6.748 15.254 20.627-1.11 9.572-25.664-16.022-3.338-3.479 16.498 30.354-10.208 2.515-23.593-24.594 1.569-63.209 20.557-82.35 18.988-19.141 30.058 4.063 53.25 29.064 23.196 25.003 49.727 40.384 30.739 59.524Z"/>
    <path fill="#6CB7E6" d="M40.849 150.026s-5.001-21.567 17.886-21.567c8.836 0 16.921.343 23.244 14.316l15.478-33.372s-65.401-25.865-56.608 40.623Z"/>
    <path fill="#6CB7E6" d="m157.708 117.47-82.483 15.486s6.718 4.403 10.34 20.737c4.152 18.728 26.318 38.687 51.378 29.856 6.341-2.233 14.783-13.753 24.761-15.041 4.017-.521-1.593-10.65 7.508-10.65 4.694 0 12.486-21.267 3.917-32.777l-15.421-7.611Z"/>
    <path fill="#347FAB" d="M160.904 185.465s7.652 4.224 15.775 2.112c0 0 3.568-2.769 5.137-4.333 0 0-10.652 3.757-20.912 2.221Z"/>
    <path fill="#6CB7E6" d="M207.686 95.139c8.777 3.587 9.994 20.921-1.125 48.125-11.117 27.205-27.246 46.354-36.021 42.765-8.776-3.588-6.877-28.549 4.242-55.753 11.118-27.205 24.125-38.723 32.904-35.137Z"/>
    <path fill="#9EDBFF" d="M212.668 101.92c4.566 2.129 1.872 10.86-9.359 24.455-26.738 32.354-4.293-1.652-9.563 2.062-5.271 3.712-17.286 19.521-19.569 18.457-4.566-2.129 1.071-14.767 12.594-28.228 11.517-13.462 21.331-18.876 25.897-16.746Z"/>
    <path fill="#6CB7E6" d="M222.994 110.272c7.64 5.615 4.602 22.725-12.807 46.404-17.41 23.68-37.711 38.325-45.351 32.71-7.638-5.614.279-29.362 17.688-53.042 17.41-23.681 32.831-31.688 40.47-26.072Z"/>
    <path fill="#9EDBFF" d="M218.219 113.098c4.715 4.156.99 14.886-12.377 29.513-31.818 34.82-4.463-3.442-10.484-.097s-20.438 20.668-22.795 18.59c-4.715-4.151 2.543-19.17 16.207-33.54 13.668-14.368 24.734-18.62 29.449-14.466Z"/>
    <path fill="#6CB7E6" d="M228.216 128.275c5.854 6.545-.157 21.479-20.452 39.633-20.293 18.154-41.494 27.563-47.349 21.018-5.856-6.545 5.849-26.569 26.142-44.722 20.295-18.156 35.802-22.473 41.659-15.929Z"/>
    <path fill="#9EDBFF" d="M221.676 130.084c4.301 4.543-.545 14.761-15.467 27.898-35.521 31.279-4.121-3.816-10.509-1.094-6.39 2.724-22.642 18.42-24.791 16.148-4.3-4.542 4.532-18.646 19.729-31.507 15.195-12.851 26.738-15.987 31.038-11.445Z"/>
    <path fill="#6CB7E6" d="M175.209 143.751c-3.598 15.087-16.473-12.493-15.375-8.021.924 3.774 7.336 20.146 4.287 17.1-11.229-11.228-2.639 13.023-5.385 12.187-12.225-3.734-9.043 7.281-14.116 9.229-8.88 3.401-18.614 3.467-27.743.821-24.451-7.082-35.311-39.347-30.21-56.96 5.102-17.608 29.058-26.146 53.506-19.063 24.45 7.077 39.287 26.872 35.036 44.707Z"/>
    <path fill="#9EDBFF" d="M168.072 135.847c-.605 2.091-3.643-9.104-12.752-9.533-1.545-.259-6.119-1.188 2.469 19.682.814 1.979-4.904-8.913-5.924-3.86-.379 1.877-1.415 0 1.63 10.37 1.81 6.164-7.802-5.819-7.802 3.432 4.297 9.264-6.133 8.673-8.711 9.452-6.559.604-14.551-.907-21.117-2.811-20.872-6.048-22.502-21.634-22.502-32.313 0 0 11.502-3.859 22.216-11.354-4.141 2.75 10.366-6.419 12.928-15.957 20.869 6.041 43.919 17.858 39.565 32.892Z"/>
    <circle cx="72.568" cy="62.714" r="61.796" fill="#6CB7E6"/>
    <path fill="#9EDBFF" d="M119.988 48.928c.447 8.46-5.178 31.625-5.602 23.561-1.294-24.552-8.302 24.556-10.239 12.477-1.266-7.896-4.216 3.718-6.63 5.231-7.247 4.553-16.195 7.055-25.585 7.539-27.886 1.445-51.58-18.063-52.924-43.575-1.34-25.513 20.175-47.364 48.059-48.809 27.886-1.446 51.579 18.065 52.921 43.576Z"/>
    <path fill="#6E6E96" d="M54.467 44.872c1.156 3.696-.031 8.141-2.65 9.912-2.619 1.774-5.682.209-6.841-3.495-1.16-3.7.028-8.144 2.65-9.916 2.623-1.77 5.683-.215 6.841 3.499Z"/>
    <path fill="#FFDC6E" d="M35.624 92.695c-6.121 4.049-29.469 12.176-34.185 10.032-4.146-1.883 6.954-21.869 18.256-29.345 0 0 8.116-6.96 17.095 1.547 7.186 11.517-1.166 17.766-1.166 17.766Z"/>
    <path fill="#6E6E96" d="M2.459 100.479S35.49 87.853 35.093 76.721c0 0 8.34 12.046-.831 16.789-9.171 4.743-31.803 12.959-31.803 6.969Z" opacity=".15"/>
    <g fill="#FFBB3F">
      <path d="M117.824 192.807s-8.069 7.782-10.239 28.679"/>
      <path d="M114.354 189.208c-.961.926-9.449 9.687-11.742 31.761a5 5 0 0 0 9.947 1.033c1.928-18.563 8.67-25.531 8.736-25.599a4.999 4.999 0 1 0-6.941-7.195Z"/>
      <path d="M92.305 232.071c-.023.026-.01.014-.034.038 1.137-1.227 11.654-11.599 30.543 1.788a4.999 4.999 0 0 0 6.971-1.188 5.003 5.003 0 0 0-1.188-6.972c-21.381-15.149-37.979-6.825-43.77-.309a5 5 0 0 0 .418 7.059 5 5 0 0 0 7.06-.416Z"/>
    </g>
    <path fill="#FFF" d="M60.08 66.549c0 2.945-4.328 3.333-9.667 3.333-5.339 0-9.667-.388-9.667-3.333 0-2.946 4.328-5.333 9.667-5.333 5.339 0 9.667 2.387 9.667 5.333Z" opacity=".45"/>
    <circle cx="178.414" cy="60.882" r="7" fill="#9EDBFF" opacity=".41"/>
    <circle cx="12.08" cy="161.216" r="4" fill="#9EDBFF"/>
    <circle cx="158.081" cy="88.549" r="3.333" fill="#9EDBFF"/>
    <circle cx="29.835" cy="204.304" r="8.912" fill="#9EDBFF" opacity=".41"/>
  </g>
</svg>
