<svg xmlns="http://www.w3.org/2000/svg" viewBox="0 0 204 249">
  <g fill="none" fill-rule="evenodd">
    <path stroke="#000" stroke-linecap="round" stroke-linejoin="round" stroke-width="8" d="M47.376 244.574h82.5" opacity=".05"/>
    <path fill="#FF87CF" fill-rule="nonzero" d="M96.216 25.704c7.932.792 23.545 6.898 7.961 14.999-6.577 3.418-4.378 15.12-5.26 17.745 0 0-13.466-11.55-36.776-11.776-17.639-.174-28.305-9.778-24.778-20.272C40.89 15.906 76.937-11.563 75.241 5.403 73.186 25.924 88.479 24.93 96.216 25.704Z"/>
    <path fill="#6E6E96" fill-rule="nonzero" d="M100.605 43.435c1.794-4.27 11.542-5.916 7.712-9.745-1.027-.751-8.384-4.771-17.488-3.577-3.181 1.371 17.488 3.577.913 12.758-4.07 5.754-14.229.268-27.858-7.173-37.009-3.34-2.527-31.604-2.509-31.624-8.379 6.005-22.421 17.59-24.013 22.325-3.527 10.494 7.14 20.098 24.778 20.271 23.31.229 36.776 11.776 36.776 11.776-1.384-3.574-.561-9.662 1.689-15.011Z" opacity=".15"/>
    <path fill="#FFBF00" fill-rule="nonzero" d="M65.953 207.536s17.901 13.033 17.901 32.146c0 7.137 0 0 0 0h8.462s5.918-27.534 11.005-27.479c0 .002-22.629-4.667-37.368-4.667Z"/>
    <path fill="#FFBF00" fill-rule="nonzero" d="M111.658 244.042c0 6.739-10.014 3.559-22.364 3.559-12.352 0-22.366 2.393-22.366-3.559 0-2.846 10.014-5.149 22.366-5.149 12.351-.003 22.364 2.303 22.364 5.149Z"/>
    <path fill="#FFD9DB" fill-rule="nonzero" d="M149.845 148.69c-4.074 43.446-36.828 75.906-73.166 72.5-36.333-3.404-74.797-44.388-58.416-84.833 12.163-30.03 6.004-43.528 8.451-60.412 3.165-21.84 12.386-34.152 32.9-32.465 48.782 4.011 94.303 61.764 90.231 105.21Z"/>
    <path fill="#BABADB" fill-rule="nonzero" d="M115.071 181.264c-3.891.68-7.537 6.442-7.537 6.442s45.095 23.768 87.141-22.813c0 0 25.834-32.056-9.662-33.48-32.723-1.313-24.131 41.848-69.942 49.851Z"/>
    <path fill="#C5C5E8" fill-rule="nonzero" d="M121.885 181.392c-3.144 1.021-5.487 6.229-5.487 6.229s40.17 14.391 69.535-29.163c0 0 17.637-29.604-11.949-26.606-27.275 2.755-15.075 37.515-52.099 49.54Z"/>
    <path fill="#EDB4B8" fill-rule="nonzero" d="M30.386 61.227c-1.671 4.244-2.868 9.173-3.671 14.719-1.594 11.001.461 20.568-1.275 34.204 7.325-22.621 3.619-34.968 4.946-48.923ZM80.679 203.69c-6.658-1.471-11.81-7.245-14.31-10.623-35.327-47.718 20.035 27.157-33.775-16.771-9.221-11.504-15.644-22.256-9.218-47.724-.063.156-5.049 7.625-5.113 7.783-16.381 40.445 22.083 81.429 58.416 84.833 35.392 3.314 67.375-27.396 72.779-69.143-10.823 32.485-38.553 54.478-68.779 51.645Z"/>
    <path fill="#BABADB" fill-rule="nonzero" d="M141.263 166.139s37.438-30.6 19.109-64.356c-18.324-33.761 56.521-13.491 26.354 31.365-22.641 33.675-47.317 47.083-54.123 45.063l8.66-12.072Z"/>
    <path fill="#FFF5F5" fill-rule="nonzero" d="M59.208 42.793c-20.514-1.688-29.735 10.625-32.9 32.465-1.081 7.457-.484 14.256-.527 22.106a54.09 54.09 0 0 1 .229-1.778c3.198-21.791 12.517-42.703 33.246-41.019 12.225.993 27.664 27.35 38.521 33.134 4.857 2.587-8.352-28.176 11.123-8.702 20.488 18.896 35.933 45.744 40.443 69.837.028-.278.069-.554.096-.834 4.072-43.446-41.45-101.199-90.231-105.209Z" opacity=".4"/>
    <path fill="#C5C5E8" fill-rule="nonzero" d="M145.957 164.818s28.677-32.285 12.271-64.37c-16.406-32.091 44.883-16.607 22.758 29.255-16.604 34.434-35.838 49.071-41.418 47.494l6.389-12.379Z"/>
    <path fill="#EDB4B8" fill-rule="nonzero" d="M21.229 153.339s-3.353-13.265 6.647-13.265 20.282-25.455 9.354-48.146c0 0-27.366 35.675-16.001 61.411Z"/>
    <path fill="#FF87CF" fill-rule="nonzero" d="M37.831 110.522c0 10.746-2.936 19.457-8.911 19.457-5.976 0-14.737-5.333-14.737-16.078 0-10.746 11.626-22.834 17.603-22.834 5.975-.001 6.045 8.71 6.045 19.455Z"/>
    <path fill="#C5C5E8" fill-rule="nonzero" d="M146.453 146.49s19.69-53.968-19.511-77.341c-39.201-23.375 49.559-48.066 45.949 16.056-2.705 48.143-19.785 76.809-27.961 78.874l1.523-17.589Z"/>
    <path fill="#EDB4B8" fill-rule="nonzero" d="M55.94 150.353s7.005 42.076 42.994 54.777l16.942-10.057-59.936-44.72Z"/>
    <path fill="#FFBF00" fill-rule="nonzero" d="M39.488 77.004c2.941 6.628 1.782 13.927-5.757 16.998-7.54 3.075-31.012.951-33.731-2.892 0 0 1.018-9.95 20.536-20.118 7.233-3.767 16.012-.617 18.952 6.012Z"/>
    <path fill="#EDB4B8" fill-rule="nonzero" d="M134.399 118.119c22.382 19.646 35.683 58.063 21.572 74.138-14.113 16.078-63.042 2.88-85.426-16.764-22.383-19.646-17.472-48.819-2.225-63.829 21.738-21.393 43.699-13.189 66.079 6.455Z"/>
    <path fill="#FFD9DB" fill-rule="nonzero" d="M124.309 112.647c18.897 16.587 30.128 49.022 18.214 62.599-10.752 2.802-22.6-14.236-26.658-15.458 4.059 4.061 11.646 21.897 4.408 21.38-16.814-1.201-33.644-6.362-49.875-22.594-18.898-18.898-14.752-38.703-1.879-51.377 18.351-18.064 36.893-11.137 55.79 5.45Z"/>
    <circle cx="60.496" cy="70.694" r="9.521" fill="#EDB4B8" fill-rule="nonzero" opacity=".43"/>
    <path fill="#6E6E96" fill-rule="nonzero" d="M167.267 57.842c7.817 12.519 9.373 53.915-7.994 87.06-4.39 8.374 14.375-45.99-8.354-78.325-8.409-11.963-27.154-10.657-19.659-16.418 7.497-5.765 28.186-4.833 36.007 7.683Z" opacity=".15"/>
    <circle cx="60.709" cy="70.907" r="4.333" fill="#6E6E96" fill-rule="nonzero"/>
    <path fill="#FFF59F" fill-rule="nonzero" d="M2.012 89.629s35.19-3.854 35.19-11.609-21.115-14.397-35.19 11.609Z" opacity=".51"/>
    <path fill="#6E6E96" fill-rule="nonzero" d="M24.688 97.888s-7.062 12.936-1.312 18.686 13.188-6.539 11.299-20.257c0 0 7.533 34.688-7.23 34.688-9.803 0-20.566-24.056-2.757-33.117Z" opacity=".15"/>
  </g>
</svg>
