<svg xmlns="http://www.w3.org/2000/svg" viewBox="0 0 235 214">
  <g fill="none" fill-rule="nonzero">
    <path fill="#A3D9FF" d="M141.624 16.485s40.15-21.396 47.678-13.311c7.53 8.086-11.828 25.4-7.651 45.043-.001.001-40.027-9.093-40.027-31.732Z"/>
    <path fill="#A3D9FF" d="M2.249 94.605s-7.24-15.239 13.318-19.281c0 0-17.792-58.498 61.549-72.803 86.064-15.52 152.055 79.613 145.196 171.697l-22.007 8.709s0-114.443-152.888-85.833c.002 0-40.537 13.269-45.168-2.489Z"/>
    <path fill="#61A7D9" d="M181.08 43.364c-.558-17.607 15.125-32.778 8.222-40.19-4.468-4.798-20.426.787-32.661 6.122 0 0 24.415-14.818 24.415-4.107 0 5.55-7.85 20.655-8.832 29.267C144.681 6.915 112.128-3.792 77.115 2.521-2.224 16.827 15.568 75.325 15.568 75.325-4.99 79.367 2.25 94.606 2.25 94.606c4.631 15.757 45.17 2.488 45.17 2.488 120.838-22.613 146.167 44.137 151.478 73.114-5.106-31.224-28.521-107.733-134.844-87.837 0 0-39.212 11.642-39.212 4.304 0 0-6.285-13.229 11.562-16.738 0 0-.582-.996-1.165-2.699 11.579 15.849 70.005 4.747 70.005 4.747 75.837 2.193 94.264 83.115 94.264 83.115v-.013c.302 5.563.846 16.104.846 19.841 0 5.171 21.153 0 21.153 0s1.696-9.722.466-24.603a138.39 138.39 0 0 1 .537 20.797c2.831-48.692-13.025-96.335-41.43-127.758ZM36.129 51.25c.354-.745.787-1.5 1.256-2.256l.005.035a44.645 44.645 0 0 0-1.261 2.221ZM72.588 5.773c60.466-18.307 115.747 43.825 136.998 94 16.053 37.9 9.17 77.664-6.827 30.518-6.052-18.863-24.056-39.297-45.232-54.834-29.02-21.293-65.927-31.882-94.654-24.332-6.534 1.445-26.519 9.595-31.688.125-.001 0-7.326-36.076 41.403-45.477Z" opacity=".36"/>
    <path fill="#F0F0FF" d="M199.701 176.296c4.88-73.287-59.994-110.208-129.089-110.208-25.564 0-74.74 2.994-69.459 25.488.324 2.333 1.096 3.967 1.096 3.967 4.632 15.756 45.17 2.487 45.17 2.487 128.714-24.083 149.065 53.22 152.282 78.266Z"/>
    <path fill="#6E6E96" d="M199.552 159.309a104.837 104.837 0 0 1-.656 10.899c-2.161-23.285-15.322-102.989-141.563-85.977 0 0-39.092 7.685-42.99 3.099 0 0-1.574-1.542-1.798-3.713-.905-4.452.544-7.992 3.616-10.802C5.73 76.629-.971 82.522 1.154 91.579c.324 2.333 1.096 3.967 1.096 3.967 4.632 15.757 45.17 2.487 45.17 2.487 128.714-24.087 149.064 53.216 152.282 78.265.392-5.9.326-11.56-.15-16.989Z" opacity=".15"/>
    <path fill="#94CBEB" d="M83.56 87.142s-.58 26.122 46.33 33.586c0 0 14.439 1.203 4.053-9.952-10.387-11.153-11.003-18.658-31.851-24.878-20.848-6.221-18.532 1.244-18.532 1.244Z"/>
    <path fill="#61A7D9" d="M133.943 110.776c-5.329-5.722-8.09-10.481-12.326-14.603.297.432.602.867.921 1.312 8.04 11.156-3.138 9.952-3.138 9.952-21.504-4.421-30.113-15.388-33.56-23.596-2.999.971-2.28 3.301-2.28 3.301s-.58 26.123 46.33 33.586c.001 0 14.441 1.203 4.053-9.952Z" opacity=".36"/>
    <path fill="#A3D9FF" d="M202.303 165.908s-23.252.623-26.63 19.278c-3.351 18.512 27.917-2.142 47.155 25.603 12.053 17.377 17.442-47.575-20.525-44.881Z"/>
    <path fill="#61A7D9" d="M218.885 170.223c8.28 7.774 9.322 21.579.32 21.579-2.782 0-5.566-.538-8.283-3.037-1.939-1.783-3.845-8.452-5.686-8.59-3.381-.254-6.546 6.08-9.326 7.301-6.302 2.762-10.625 1.424-10.996-4.729-.692-11.5 11.788-15.843 13.801-16.468-6.66 1.028-20.497 4.843-23.042 18.903-3.35 18.513 27.917-2.141 47.155 25.604 9.868 14.232 15.264-26.726-3.943-40.563Z" opacity=".36"/>
    <circle cx="44.166" cy="42.712" r="5.726" fill="#6E6E96"/>
    <path fill="#61A7D9" d="M131.772 168.148c2.521 4.141 1.462 6.339-.692 7.65-2.156 1.313-4.596 1.242-7.115-2.897-2.521-4.141-4.506-11.338-2.351-12.649 2.156-1.313 7.637 3.755 10.158 7.896Z"/>
    <path fill="#61A7D9" d="M152.329 138.837c1.491 2.449 1.018 3.66-.072 4.322-1.088.664-2.38.529-3.872-1.922s-2.819-6.619-1.73-7.281c1.088-.664 4.182 2.43 5.674 4.881Z" opacity=".51"/>
    <path fill="#61A7D9" d="M217.615 40.776c2.142 1.379 1.782 3.226.616 5.037s-2.698 2.901-4.841 1.522c-2.143-1.379-4.369-4.891-3.202-6.702 1.167-1.811 5.284-1.236 7.427.143Z" opacity=".31"/>
    <path fill="#61A7D9" d="M233.926 93.926c1.492 2.45 1.018 3.661-.072 4.323-1.088.664-2.38.529-3.872-1.922-1.491-2.451-2.818-6.619-1.729-7.282 1.087-.664 4.18 2.43 5.673 4.881ZM87.826 126.998c1.409 2.314.511 3.734-1.075 4.697-1.583.967-3.254 1.113-4.664-1.203-1.41-2.315-2.214-6.529-.629-7.494 1.584-.966 4.958 1.683 6.368 4Z" opacity=".51"/>
  </g>
</svg>
